<svg width="92" height="20" viewBox="0 0 92 20" fill="none" xmlns="http://www.w3.org/2000/svg">
<path d="M18.9203 12.4191C17.6374 17.7763 12.4259 21.0365 7.27975 19.7006C2.13573 18.365 -0.995769 12.9388 0.287684 7.58198C1.56994 2.22422 6.7815 -1.03637 11.9261 0.299246C17.0719 1.63486 20.2031 7.06168 18.9203 12.4191Z" fill="#FCA014"/>
<path d="M13.8387 8.57477C14.0299 7.24416 13.0568 6.52886 11.7262 6.05167L12.1578 4.24919L11.104 3.97575L10.6838 5.73074C10.4068 5.65886 10.1222 5.59105 9.83946 5.52387L10.2627 3.75732L9.20944 3.48388L8.77752 5.28574C8.5482 5.23136 8.32309 5.17762 8.10457 5.12106L8.10577 5.11543L6.65244 4.73762L6.3721 5.90948C6.3721 5.90948 7.15399 6.09604 7.13749 6.10761C7.5643 6.21854 7.64144 6.5126 7.62853 6.74572L7.13688 8.79914C7.1663 8.80696 7.20442 8.81821 7.24644 8.83571C7.21133 8.82664 7.17381 8.81664 7.13509 8.80695L6.44593 11.6835C6.3937 11.8185 6.26134 12.021 5.96299 11.9441C5.97349 11.96 5.197 11.7451 5.197 11.7451L4.67383 13.001L6.04523 13.3569C6.30036 13.4235 6.55038 13.4932 6.79651 13.5588L6.36039 15.3819L7.41303 15.6553L7.84494 13.8516C8.13249 13.9328 8.41163 14.0078 8.68477 14.0785L8.25436 15.8738L9.30819 16.1472L9.74431 14.3275C11.5413 14.6816 12.8926 14.5388 13.4614 12.8466C13.9197 11.4841 13.4386 10.6982 12.4931 10.1857C13.1817 10.0204 13.7003 9.54883 13.8387 8.57477ZM11.4309 12.09C11.1052 13.4525 8.90178 12.716 8.18742 12.5313L8.76611 10.116C9.48048 10.3016 11.7712 10.6691 11.4309 12.09ZM11.7568 8.55508C11.4597 9.79444 9.62575 9.16476 9.03085 9.01039L9.55552 6.81979C10.1504 6.97417 12.0663 7.26228 11.7568 8.55508Z" fill="white"/>
<g opacity="0.5">
<path d="M28.1472 6.05006C28.9261 6.05006 29.5991 6.19536 30.1646 6.48067C30.7327 6.7688 31.2016 7.15692 31.5777 7.64504C31.9487 8.13566 32.2248 8.70909 32.4031 9.36627C32.5802 10.0253 32.669 10.7338 32.669 11.4922C32.669 12.6572 32.464 13.7578 32.0501 14.7953C31.6362 15.8343 31.0746 16.7356 30.3602 17.5043C29.6465 18.2721 28.8037 18.8774 27.8318 19.3246C26.8614 19.7721 25.8063 19.9959 24.6736 19.9959C24.5271 19.9959 24.2695 19.9915 23.9058 19.9837C23.542 19.9759 23.1239 19.9368 22.6556 19.8709C22.1844 19.8024 21.6861 19.7012 21.16 19.5655C20.6341 19.4324 20.1346 19.2459 19.6643 19.009L23.87 0.610429L27.637 0.0026207L26.1311 6.53162C26.4535 6.38037 26.7782 6.26318 27.1024 6.17787C27.4269 6.0938 27.775 6.05006 28.1472 6.05006ZM24.9875 16.8846C25.5548 16.8846 26.0894 16.7393 26.5915 16.454C27.0952 16.1684 27.5298 15.7828 27.8939 15.3025C28.258 14.82 28.5461 14.2765 28.7562 13.6694C28.9663 13.0622 29.0726 12.4287 29.0726 11.7697C29.0726 10.96 28.9426 10.3285 28.6836 9.8719C28.4246 9.41721 27.9452 9.18846 27.2492 9.18846C27.0211 9.18846 26.7272 9.23377 26.3628 9.31471C25.9972 9.40064 25.6701 9.57909 25.3768 9.84752L23.7734 16.7812C23.8701 16.799 23.9556 16.8159 24.0285 16.8318C24.1 16.849 24.1789 16.8612 24.2575 16.8696C24.3407 16.8793 24.4358 16.8843 24.5508 16.8843C24.6658 16.8843 24.8095 16.8846 24.9875 16.8846Z" fill="#90A3BF"/>
<path d="M36.5753 19.6435H32.9774L36.0159 6.3321H39.6384L36.5753 19.6435ZM38.3261 4.71024C37.824 4.71024 37.3687 4.55461 36.9646 4.24274C36.5573 3.93274 36.3556 3.45556 36.3556 2.81244C36.3556 2.4587 36.4247 2.12682 36.5615 1.8137C36.7005 1.5012 36.8821 1.23215 37.1096 1.0034C37.3368 0.776526 37.6001 0.595275 37.899 0.458713C38.1998 0.32434 38.5197 0.257156 38.8607 0.257156C39.3626 0.257156 39.8155 0.41278 40.221 0.724652C40.625 1.03809 40.8282 1.51527 40.8282 2.15495C40.8282 2.50995 40.7595 2.84307 40.6214 3.15556C40.4842 3.46806 40.3026 3.73712 40.0751 3.96586C39.8497 4.19305 39.5841 4.37367 39.2857 4.50899C38.9847 4.64555 38.6659 4.71024 38.3261 4.71024Z" fill="#90A3BF"/>
<path d="M42.791 3.01557L46.5594 2.40776L45.634 6.33147H49.6699L48.9411 9.41831H44.9296L43.861 14.0745C43.7626 14.4626 43.7068 14.8251 43.6911 15.162C43.6734 15.5004 43.7146 15.7911 43.8118 16.0358C43.9085 16.2811 44.0822 16.4701 44.3344 16.6039C44.5853 16.7398 44.9446 16.8082 45.4158 16.8082C45.8039 16.8082 46.1821 16.7698 46.5477 16.6936C46.9112 16.6186 47.2795 16.5142 47.6523 16.3776L47.9206 19.2638C47.4344 19.4495 46.9079 19.6092 46.3406 19.7435C45.7724 19.8798 45.0998 19.9454 44.3224 19.9454C43.2046 19.9454 42.3381 19.7726 41.7206 19.4285C41.1041 19.082 40.6683 18.6085 40.4075 18.0092C40.1502 17.412 40.0353 16.7236 40.0674 15.9479C40.1007 15.1705 40.2133 14.3533 40.4075 13.4927L42.791 3.01557Z" fill="#90A3BF"/>
</g>
<path d="M49.5125 14.3278C49.5125 13.1813 49.6907 12.1 50.047 11.0878C50.4027 10.0747 50.9151 9.1888 51.5799 8.42849C52.2423 7.67194 53.0495 7.07257 53.9994 6.63257C54.9449 6.19508 56.0036 5.97446 57.1702 5.97446C57.9005 5.97446 58.5527 6.04633 59.1266 6.1904C59.7029 6.33571 60.2243 6.52352 60.6958 6.75914L59.455 9.69661C59.1308 9.55974 58.7944 9.43911 58.4465 9.32974C58.0983 9.21817 57.6733 9.16443 57.1705 9.16443C55.9696 9.16443 55.0203 9.59536 54.3137 10.4544C53.6098 11.3141 53.2554 12.4713 53.2554 13.9228C53.2554 14.7831 53.4336 15.4787 53.7914 16.0109C54.1474 16.5431 54.805 16.8078 55.7598 16.8078C56.2311 16.8078 56.6858 16.7565 57.1213 16.6565C57.5601 16.5553 57.9476 16.4278 58.2889 16.2772L58.5576 19.2884C58.1025 19.4721 57.6007 19.6381 57.0502 19.7834C56.4985 19.9237 55.8418 19.9965 55.0803 19.9965C54.0751 19.9965 53.2241 19.8434 52.5281 19.5418C51.8317 19.2356 51.2563 18.829 50.8031 18.314C50.3475 17.7978 50.0203 17.195 49.818 16.5031C49.6157 15.8119 49.5125 15.0856 49.5125 14.3278Z" fill="#90A3BF"/>
<path d="M65.4947 19.9965C64.636 19.9965 63.8901 19.8603 63.2574 19.5906C62.6264 19.3209 62.1039 18.9425 61.6906 18.4518C61.2766 17.9637 60.9669 17.3853 60.7547 16.7187C60.5425 16.0525 60.4404 15.3147 60.4404 14.5062C60.4404 13.4922 60.5968 12.4785 60.9129 11.4675C61.2274 10.4544 61.6942 9.54411 62.3119 8.73506C62.9248 7.92475 63.6809 7.26225 64.5711 6.74569C65.4605 6.23258 66.4834 5.97446 67.6324 5.97446C68.4755 5.97446 69.2175 6.11101 69.8589 6.3807C70.4973 6.64976 71.0232 7.03132 71.4389 7.51944C71.8501 8.01006 72.1626 8.586 72.3727 9.25349C72.5843 9.91848 72.6888 10.6582 72.6888 11.4672C72.6888 12.4781 72.5345 13.4919 72.2283 14.5059C71.9219 15.515 71.4671 16.4275 70.8668 17.2384C70.2677 18.0475 69.5186 18.7096 68.6187 19.224C67.72 19.7384 66.6779 19.9965 65.4947 19.9965ZM67.2929 9.16474C66.7596 9.16474 66.288 9.32598 65.8843 9.64442C65.4791 9.9666 65.1387 10.3716 64.8644 10.86C64.587 11.3507 64.3814 11.8857 64.2425 12.4672C64.1047 13.05 64.0372 13.6009 64.0372 14.1244C64.0372 14.9691 64.168 15.6269 64.4253 16.1003C64.6861 16.5712 65.1546 16.8081 65.8357 16.8081C66.3709 16.8081 66.84 16.6481 67.2461 16.3262C67.6489 16.0065 67.9896 15.6012 68.266 15.1119C68.5416 14.6237 68.749 14.0872 68.8879 13.5047C69.0239 12.9238 69.0932 12.3697 69.0932 11.8472C69.0932 11.0047 68.963 10.3454 68.7033 9.87254C68.444 9.40161 67.9734 9.16474 67.2929 9.16474Z" fill="#90A3BF"/>
<path d="M76.6105 19.6436H73.0095L76.048 6.33216H79.6723L76.6105 19.6436ZM78.3585 4.7103C77.8567 4.7103 77.4017 4.55468 76.9983 4.24281C76.593 3.93281 76.3895 3.45563 76.3895 2.81251C76.3895 2.45876 76.4595 2.12689 76.5966 1.81376C76.7338 1.50127 76.9166 1.23221 77.1441 1.00346C77.3701 0.776591 77.6358 0.595339 77.9341 0.458778C78.2331 0.324405 78.553 0.257221 78.8928 0.257221C79.3959 0.257221 79.8503 0.412845 80.2549 0.724717C80.6598 1.03815 80.8642 1.51533 80.8642 2.15501C80.8642 2.51001 80.7916 2.84313 80.6556 3.15563C80.5197 3.46812 80.3369 3.73718 80.1102 3.96593C79.8821 4.19311 79.6198 4.37374 79.3208 4.50905C79.0195 4.64561 78.7001 4.7103 78.3585 4.7103Z" fill="#90A3BF"/>
<path d="M82.266 6.93718C82.5391 6.85406 82.8441 6.75406 83.1758 6.64531C83.5086 6.53656 83.8805 6.43532 84.2959 6.34407C84.7068 6.25001 85.1706 6.17376 85.6805 6.11469C86.1905 6.05438 86.7716 6.025 87.4172 6.025C89.3148 6.025 90.6229 6.60032 91.345 7.74749C92.0666 8.89467 92.1915 10.4646 91.7232 12.4546L90.0682 19.6421H86.4465L88.0506 12.6059C88.1484 12.1665 88.2252 11.7418 88.282 11.3268C88.3393 10.9156 88.336 10.5531 88.2691 10.2393C88.2051 9.92934 88.0544 9.67559 87.8206 9.47903C87.5832 9.2856 87.2245 9.18841 86.738 9.18841C86.2688 9.18841 85.7916 9.24091 85.3044 9.34216L82.9461 19.6417H79.323L82.266 6.93718Z" fill="#90A3BF"/>
</svg>
