<svg width="93" height="20" viewBox="0 0 93 20" fill="none" xmlns="http://www.w3.org/2000/svg">
<path d="M29.8545 4H24.7633C24.5947 3.99991 24.4317 4.0534 24.3035 4.15085C24.1753 4.2483 24.0905 4.3833 24.0642 4.53151L22.0051 16.1539C21.9956 16.2079 21.9994 16.263 22.0162 16.3155C22.0329 16.368 22.0623 16.4166 22.1022 16.4581C22.1421 16.4995 22.1916 16.5328 22.2473 16.5556C22.303 16.5783 22.3636 16.5901 22.425 16.59H24.8556C25.0242 16.5901 25.1874 16.5365 25.3155 16.4389C25.4437 16.3413 25.5285 16.2062 25.5546 16.0578L26.11 12.9231C26.136 12.7749 26.2207 12.6398 26.3487 12.5422C26.4768 12.4447 26.6397 12.391 26.8082 12.3909H28.42C31.7737 12.3909 33.7093 10.9461 34.2147 8.08312C34.4425 6.83055 34.2244 5.84638 33.5656 5.15714C32.842 4.40029 31.5586 4 29.8545 4ZM30.4419 8.24483C30.1635 9.87118 28.7676 9.87118 27.4179 9.87118H26.6497L27.1887 6.83386C27.2044 6.745 27.2553 6.66407 27.3322 6.60563C27.409 6.54719 27.5067 6.51509 27.6078 6.51508H27.9599C28.8793 6.51508 29.7466 6.51508 30.1947 6.98165C30.462 7.26 30.5439 7.67355 30.4419 8.24483ZM45.0732 8.19247H42.6352C42.5341 8.19247 42.4364 8.22458 42.3595 8.28302C42.2827 8.34146 42.2318 8.42239 42.216 8.51125L42.1081 9.11831L41.9376 8.89828C41.4098 8.21633 40.2328 7.98835 39.0581 7.98835C36.3639 7.98835 34.0629 9.80491 33.6147 12.3531C33.3817 13.6243 33.713 14.8397 34.5229 15.6874C35.2659 16.4667 36.329 16.7915 37.5938 16.7915C39.7646 16.7915 40.9683 15.5488 40.9683 15.5488L40.8597 16.1519C40.85 16.2059 40.8535 16.261 40.8701 16.3136C40.8867 16.3662 40.9158 16.4149 40.9556 16.4565C40.9954 16.4981 41.0448 16.5315 41.1004 16.5544C41.1561 16.5773 41.2167 16.5893 41.278 16.5893H43.4741C43.6428 16.5894 43.8059 16.5358 43.9341 16.4382C44.0623 16.3407 44.1471 16.2055 44.1732 16.0572L45.4908 8.62855C45.5005 8.57475 45.497 8.51972 45.4805 8.46725C45.4639 8.41479 45.4348 8.36614 45.3951 8.32468C45.3554 8.28321 45.3061 8.24992 45.2505 8.22709C45.1949 8.20427 45.1344 8.19245 45.0732 8.19247ZM41.6748 12.4168C41.4396 13.6567 40.3341 14.4891 38.9241 14.4891C38.2161 14.4891 37.6503 14.287 37.2871 13.9039C36.9267 13.5235 36.7898 12.9821 36.9044 12.379C37.124 11.1496 38.2481 10.29 39.6365 10.29C40.3289 10.29 40.8917 10.4948 41.2624 10.8812C41.6339 11.2715 41.7813 11.8163 41.6748 12.4168ZM58.0578 8.19247H55.6079C55.4923 8.19263 55.3786 8.21789 55.2765 8.26605C55.1744 8.31421 55.087 8.38381 55.022 8.46883L51.6429 12.8999L50.2106 8.64181C50.1667 8.51194 50.0769 8.39812 49.9546 8.31719C49.8323 8.23627 49.6841 8.19254 49.5317 8.19247H47.1242C47.0566 8.19231 46.9899 8.20652 46.9298 8.23392C46.8696 8.26133 46.8177 8.30112 46.7783 8.35001C46.7389 8.39889 46.7132 8.45544 46.7033 8.51496C46.6934 8.57447 46.6996 8.63523 46.7214 8.69217L49.42 15.7424L46.883 18.9308C46.8379 18.9873 46.8111 19.0538 46.8057 19.123C46.8002 19.1921 46.8162 19.2613 46.852 19.3229C46.8877 19.3845 46.9418 19.4361 47.0083 19.4722C47.0749 19.5082 47.1512 19.5273 47.2291 19.5272H49.6761C49.7904 19.5274 49.9029 19.5029 50.0042 19.4558C50.1055 19.4087 50.1924 19.3404 50.2575 19.2569L58.4062 8.78562C58.4504 8.72897 58.4763 8.66263 58.4811 8.59381C58.486 8.52498 58.4695 8.45629 58.4337 8.39518C58.3978 8.33408 58.3438 8.28288 58.2775 8.24714C58.2113 8.21141 58.1353 8.1925 58.0578 8.19247Z" fill="#022273"/>
<path d="M70.8546 4.00066H65.7626C65.5942 4.00073 65.4314 4.05429 65.3033 4.15173C65.1753 4.24917 65.0906 4.38407 65.0643 4.53218L63.0052 16.1546C62.9956 16.2084 62.9993 16.2635 63.0159 16.3159C63.0325 16.3684 63.0617 16.417 63.1015 16.4585C63.1413 16.4999 63.1906 16.5332 63.2463 16.556C63.3019 16.5788 63.3624 16.5907 63.4236 16.5907H66.0366C66.1545 16.5905 66.2684 16.5529 66.358 16.4846C66.4475 16.4164 66.5067 16.3219 66.525 16.2182L67.1093 12.9237C67.1354 12.7755 67.2201 12.6405 67.3481 12.5429C67.4761 12.4453 67.6391 12.3917 67.8076 12.3916H69.4186C72.7731 12.3916 74.7079 10.9468 75.2141 8.08378C75.4427 6.83121 75.223 5.84705 74.5642 5.1578C73.8414 4.40096 72.5587 4.00066 70.8546 4.00066ZM71.442 8.24549C71.1643 9.87184 69.7685 9.87184 68.4181 9.87184H67.6506L68.1903 6.83452C68.2057 6.74566 68.2564 6.66466 68.3332 6.60619C68.4099 6.54772 68.5076 6.51564 68.6087 6.51575H68.9608C69.8794 6.51575 70.7474 6.51575 71.1956 6.98231C71.4629 7.26066 71.544 7.67421 71.442 8.24549ZM86.0726 8.19313H83.636C83.535 8.19288 83.4372 8.22492 83.3604 8.28342C83.2836 8.34191 83.233 8.42299 83.2176 8.51191L83.1097 9.11898L82.9385 8.89895C82.4107 8.21699 81.2344 7.98901 80.0597 7.98901C77.3656 7.98901 75.0652 9.80557 74.6171 12.3538C74.3848 13.6249 74.7146 14.8404 75.5245 15.688C76.269 16.4674 77.3306 16.7921 78.5954 16.7921C80.7662 16.7921 81.97 15.5495 81.97 15.5495L81.8613 16.1526C81.8516 16.2066 81.8552 16.2619 81.8718 16.3146C81.8885 16.3672 81.9178 16.4161 81.9577 16.4577C81.9976 16.4993 82.0472 16.5326 82.1031 16.5555C82.1589 16.5783 82.2197 16.5901 82.2811 16.59H84.4765C84.645 16.5899 84.808 16.5363 84.936 16.4387C85.064 16.3411 85.1487 16.206 85.1748 16.0578L86.4932 8.62921C86.5026 8.57524 86.4987 8.52011 86.4818 8.4676C86.465 8.4151 86.4355 8.36646 86.3956 8.32503C86.3556 8.2836 86.3061 8.25036 86.2503 8.22759C86.1946 8.20482 86.1339 8.19307 86.0726 8.19313ZM82.6742 12.4174C82.4404 13.6574 81.3335 14.4898 79.9235 14.4898C79.217 14.4898 78.6497 14.2877 78.2864 13.9046C77.9261 13.5242 77.7906 12.9827 77.9038 12.3796C78.1249 11.1503 79.2475 10.2907 80.6359 10.2907C81.3282 10.2907 81.891 10.4955 82.2618 10.8819C82.6347 11.2722 82.7821 11.817 82.6742 12.4174ZM88.9469 4.31944L86.8572 16.1546C86.8477 16.2084 86.8513 16.2635 86.8679 16.3159C86.8846 16.3684 86.9138 16.417 86.9535 16.4585C86.9933 16.4999 87.0427 16.5332 87.0983 16.556C87.1539 16.5788 87.2144 16.5907 87.2756 16.5907H89.3764C89.7256 16.5907 90.0219 16.3653 90.0755 16.0585L92.1361 4.43674C92.1457 4.38287 92.142 4.3278 92.1254 4.2753C92.1088 4.2228 92.0796 4.17413 92.0398 4.13264C92.0001 4.09114 91.9507 4.05779 91.8951 4.0349C91.8395 4.012 91.779 4.0001 91.7177 4H89.3653C89.2643 4.00032 89.1667 4.03264 89.09 4.09117C89.0134 4.14971 88.9626 4.23063 88.9469 4.31944Z" fill="#167FC4"/>
<path d="M5.40834 19.3215L5.79769 17.1199L4.93041 17.102H0.789059L3.66708 0.856327C3.67565 0.806689 3.70397 0.761445 3.74688 0.728842C3.78979 0.69624 3.84443 0.678449 3.90084 0.678714H10.8837C13.2019 0.678714 14.8017 1.10817 15.637 1.95581C16.0286 2.35345 16.278 2.76898 16.3986 3.22627C16.5251 3.70609 16.5274 4.27936 16.4038 4.97855L16.3949 5.02958V5.47759L16.7864 5.67508C17.0854 5.80991 17.3541 5.99229 17.5793 6.21323C17.9143 6.55321 18.1309 6.98531 18.2225 7.49761C18.317 8.02448 18.2858 8.65143 18.1309 9.36122C17.9522 10.1777 17.6634 10.8888 17.2733 11.4707C16.9291 11.992 16.4664 12.4435 15.9147 12.7962C15.3966 13.1236 14.7809 13.3721 14.0848 13.5312C13.4104 13.6876 12.6414 13.7664 11.7979 13.7664H11.2545C10.8659 13.7664 10.4884 13.891 10.1921 14.1144C9.89628 14.3401 9.7 14.652 9.63828 14.9945L9.59733 15.1926L8.90947 19.073L8.8782 19.2154C8.87001 19.2605 8.85587 19.283 8.83502 19.2983C8.81483 19.313 8.78964 19.3212 8.76356 19.3215H5.40834Z" fill="#022273"/>
<path d="M17.157 5.08179C17.1361 5.20042 17.1123 5.3217 17.0855 5.44629C16.1646 9.65533 13.0141 11.1094 8.99041 11.1094H6.9417C6.44962 11.1094 6.03497 11.4275 5.95829 11.8596L4.90937 17.7818L4.61233 19.4605C4.6005 19.5271 4.60502 19.5952 4.62557 19.6601C4.64613 19.7249 4.68224 19.7851 4.73141 19.8364C4.78058 19.8876 4.84165 19.9288 4.91041 19.9571C4.97917 19.9853 5.05399 19.9999 5.12972 20H8.76336C9.19365 20 9.55917 19.7216 9.62691 19.3439L9.66265 19.1795L10.3468 15.3144L10.3907 15.1024C10.4577 14.7233 10.824 14.4449 11.2543 14.4449H11.7977C15.3182 14.4449 18.0741 13.1725 18.8796 9.49031C19.2161 7.9521 19.0419 6.66771 18.1516 5.76441C17.8694 5.48497 17.5323 5.25365 17.157 5.08179Z" fill="#167FC4"/>
<path d="M16.1924 4.73907C15.8984 4.66335 15.5993 4.60425 15.2969 4.56212C14.6993 4.48037 14.0954 4.44114 13.4908 4.44482H8.01769C7.80939 4.44467 7.60792 4.51087 7.44967 4.63145C7.29143 4.75202 7.18686 4.91902 7.15487 5.10225L5.99056 11.6673L5.95706 11.8588C5.99333 11.6499 6.11243 11.4593 6.29281 11.3217C6.47319 11.1841 6.70293 11.1085 6.94047 11.1086H8.98919C13.0129 11.1086 16.1634 9.65392 17.0843 5.44555C17.1118 5.32095 17.1349 5.19967 17.1557 5.08104C16.9128 4.9676 16.6595 4.8725 16.3986 4.79673C16.3303 4.77653 16.2615 4.75731 16.1924 4.73907Z" fill="#022273"/>
<path d="M7.15703 5.10241C7.18874 4.91912 7.29326 4.75205 7.45158 4.63154C7.6099 4.51102 7.81153 4.44506 8.01984 4.44564H13.493C14.1414 4.44564 14.7466 4.48341 15.299 4.56294C15.6728 4.61524 16.0414 4.69346 16.4015 4.79689C16.6733 4.87708 16.9256 4.97185 17.1586 5.0812C17.4326 3.52576 17.1564 2.4667 16.2117 1.50773C15.1702 0.451986 13.2905 0 10.8852 0H3.90231C3.41098 0 2.99186 0.318113 2.91592 0.75088L0.00737723 17.1635C-0.00617029 17.2397 -0.00101592 17.3177 0.0224858 17.3919C0.0459875 17.4662 0.0872788 17.535 0.143519 17.5937C0.19976 17.6524 0.269615 17.6996 0.348279 17.7319C0.426944 17.7643 0.51255 17.7811 0.599211 17.7812H4.91029L5.99271 11.6675L7.15703 5.10241Z" fill="#022273"/>
</svg>
