<svg width="28" height="31" viewBox="0 0 28 31" fill="none" xmlns="http://www.w3.org/2000/svg">
<g filter="url(#filter0_d_3_38023)">
<path d="M18 22.75H10C6.35 22.75 4.25 20.65 4.25 17V7C4.25 3.35 6.35 1.25 10 1.25H18C21.65 1.25 23.75 3.35 23.75 7V17C23.75 20.65 21.65 22.75 18 22.75ZM10 2.75C7.14 2.75 5.75 4.14 5.75 7V17C5.75 19.86 7.14 21.25 10 21.25H18C20.86 21.25 22.25 19.86 22.25 17V7C22.25 4.14 20.86 2.75 18 2.75H10Z" fill="#292D32"/>
<path d="M20.5 9.25H18.5C16.98 9.25 15.75 8.02 15.75 6.5V4.5C15.75 4.09 16.09 3.75 16.5 3.75C16.91 3.75 17.25 4.09 17.25 4.5V6.5C17.25 7.19 17.81 7.75 18.5 7.75H20.5C20.91 7.75 21.25 8.09 21.25 8.5C21.25 8.91 20.91 9.25 20.5 9.25Z" fill="#292D32"/>
<path d="M14 13.75H10C9.59 13.75 9.25 13.41 9.25 13C9.25 12.59 9.59 12.25 10 12.25H14C14.41 12.25 14.75 12.59 14.75 13C14.75 13.41 14.41 13.75 14 13.75Z" fill="#292D32"/>
<path d="M18 17.75H10C9.59 17.75 9.25 17.41 9.25 17C9.25 16.59 9.59 16.25 10 16.25H18C18.41 16.25 18.75 16.59 18.75 17C18.75 17.41 18.41 17.75 18 17.75Z" fill="#292D32"/>
</g>
<defs>
<filter id="filter0_d_3_38023" x="-2" y="0" width="32" height="32" filterUnits="userSpaceOnUse" color-interpolation-filters="sRGB">
<feFlood flood-opacity="0" result="BackgroundImageFix"/>
<feColorMatrix in="SourceAlpha" type="matrix" values="0 0 0 0 0 0 0 0 0 0 0 0 0 0 0 0 0 0 127 0" result="hardAlpha"/>
<feOffset dy="4"/>
<feGaussianBlur stdDeviation="2"/>
<feComposite in2="hardAlpha" operator="out"/>
<feColorMatrix type="matrix" values="0 0 0 0 0 0 0 0 0 0 0 0 0 0 0 0 0 0 0.25 0"/>
<feBlend mode="normal" in2="BackgroundImageFix" result="effect1_dropShadow_3_38023"/>
<feBlend mode="normal" in="SourceGraphic" in2="effect1_dropShadow_3_38023" result="shape"/>
</filter>
</defs>
</svg>
