<svg width="24" height="24" viewBox="0 0 24 24" fill="none" xmlns="http://www.w3.org/2000/svg">
<path d="M4.75 14.5C3.23 14.5 2 13.27 2 11.75C2 10.23 3.23 9 4.75 9C6.27 9 7.5 10.23 7.5 11.75C7.5 13.27 6.27 14.5 4.75 14.5ZM4.75 11.75C4.74918 11.8134 4.75 11.06 4.75 11.75Z" fill="#292D32"/>
<path d="M11.75 14.5C10.23 14.5 9 13.27 9 11.75C9 10.23 10.23 9 11.75 9C13.27 9 14.5 10.23 14.5 11.75C14.5 13.27 13.27 14.5 11.75 14.5ZM11.75 11.75C11.7492 11.8134 11.75 11.06 11.75 11.75Z" fill="#292D32"/>
<path d="M18.75 14.5C17.23 14.5 16 13.27 16 11.75C16 10.23 17.23 9 18.75 9C20.27 9 21.5 10.23 21.5 11.75C21.5 13.27 20.27 14.5 18.75 14.5ZM18.75 11.75C18.7492 11.8134 18.75 11.06 18.75 11.75Z" fill="#292D32"/>
</svg>
