<svg width="24" height="24" viewBox="0 0 24 24" fill="none" xmlns="http://www.w3.org/2000/svg">
<path d="M12.0002 22.75C11.3702 22.75 10.7802 22.51 10.3402 22.06L8.82025 20.54C8.70025 20.42 8.38025 20.29 8.22025 20.29H6.06024C4.76024 20.29 3.71024 19.2399 3.71024 17.9399V15.78C3.71024 15.62 3.58024 15.3 3.46024 15.18L1.94025 13.66C1.50025 13.22 1.25024 12.63 1.25024 12C1.25024 11.37 1.49025 10.7799 1.94025 10.3399L3.46024 8.81991C3.58024 8.69991 3.71024 8.37994 3.71024 8.21994V6.06002C3.71024 4.76002 4.76024 3.70993 6.06024 3.70993H8.22025C8.38025 3.70993 8.70025 3.57993 8.82025 3.45993L10.3402 1.93991C11.2202 1.05991 12.7802 1.05991 13.6602 1.93991L15.1802 3.45993C15.3002 3.57993 15.6202 3.70993 15.7802 3.70993H17.9402C19.2402 3.70993 20.2903 4.76002 20.2903 6.06002V8.21994C20.2903 8.37994 20.4203 8.69991 20.5403 8.81991L22.0602 10.3399C22.5002 10.7799 22.7502 11.37 22.7502 12C22.7502 12.63 22.5102 13.22 22.0602 13.66L20.5403 15.18C20.4203 15.3 20.2903 15.62 20.2903 15.78V17.9399C20.2903 19.2399 19.2402 20.29 17.9402 20.29H15.7802C15.6202 20.29 15.3002 20.42 15.1802 20.54L13.6602 22.06C13.2202 22.51 12.6302 22.75 12.0002 22.75ZM4.52023 14.12C4.92023 14.52 5.21024 15.22 5.21024 15.78V17.9399C5.21024 18.4099 5.59024 18.79 6.06024 18.79H8.22025C8.78025 18.79 9.48025 19.0799 9.88025 19.4799L11.4002 21C11.7202 21.32 12.2803 21.32 12.6003 21L14.1202 19.4799C14.5202 19.0799 15.2202 18.79 15.7802 18.79H17.9402C18.4102 18.79 18.7903 18.4099 18.7903 17.9399V15.78C18.7903 15.22 19.0803 14.52 19.4803 14.12L21.0002 12.5999C21.1602 12.4399 21.2502 12.23 21.2502 12C21.2502 11.77 21.1602 11.56 21.0002 11.4L19.4803 9.87997C19.0803 9.47997 18.7903 8.77994 18.7903 8.21994V6.06002C18.7903 5.59002 18.4102 5.20993 17.9402 5.20993H15.7802C15.2202 5.20993 14.5202 4.91999 14.1202 4.51999L12.6003 2.99997C12.2803 2.67997 11.7202 2.67997 11.4002 2.99997L9.88025 4.51999C9.48025 4.91999 8.78025 5.20993 8.22025 5.20993H6.06024C5.59024 5.20993 5.21024 5.59002 5.21024 6.06002V8.21994C5.21024 8.77994 4.92023 9.47997 4.52023 9.87997L3.00024 11.4C2.84024 11.56 2.75024 11.77 2.75024 12C2.75024 12.23 2.84024 12.4399 3.00024 12.5999L4.52023 14.12Z" fill="#292D32"/>
<path d="M15.0005 16C14.4405 16 13.9905 15.55 13.9905 15C13.9905 14.45 14.4405 14 14.9905 14C15.5405 14 15.9905 14.45 15.9905 15C15.9905 15.55 15.5505 16 15.0005 16Z" fill="#3EBF84"/>
<path d="M9.01025 10C8.45025 10 8.00024 9.55 8.00024 9C8.00024 8.45 8.45024 8 9.00024 8C9.55024 8 10.0002 8.45 10.0002 9C10.0002 9.55 9.56025 10 9.01025 10Z" fill="#3EBF84"/>
<path d="M9.00018 15.75C8.81018 15.75 8.62019 15.68 8.47019 15.53C8.18019 15.24 8.18019 14.7599 8.47019 14.4699L14.4702 8.46994C14.7602 8.17994 15.2402 8.17994 15.5302 8.46994C15.8202 8.75994 15.8202 9.24 15.5302 9.53L9.53018 15.53C9.38018 15.68 9.19018 15.75 9.00018 15.75Z" fill="#3EBF84"/>
</svg>
