<svg width="24" height="24" viewBox="0 0 24 24" fill="none" xmlns="http://www.w3.org/2000/svg">
<path d="M19.8319 8.69999L15.3019 4.16999C14.3519 3.21999 13.0419 2.70999 11.7019 2.77999L6.70193 3.01999C4.70193 3.10999 3.11193 4.69999 3.01193 6.68999L2.77193 11.69C2.71193 13.03 3.21193 14.34 4.16193 15.29L8.69193 19.82C10.5519 21.68 13.5719 21.68 15.4419 19.82L19.8319 15.43C21.7019 13.58 21.7019 10.56 19.8319 8.69999ZM9.50193 12.38C7.91193 12.38 6.62193 11.09 6.62193 9.49999C6.62193 7.90999 7.91193 6.61999 9.50193 6.61999C11.0919 6.61999 12.3819 7.90999 12.3819 9.49999C12.3819 11.09 11.0919 12.38 9.50193 12.38Z" fill="#3EBF84"/>
</svg>
